<svg width="700" height="700" viewBox="0 0 700 700" fill="none" xmlns="http://www.w3.org/2000/svg">
<path d="M329.75 216.902C330.169 216.647 330.582 216.377 330.988 216.138C331.497 210.094 334.839 205.743 335.429 205.003C342.623 193.751 347.593 204.083 347.593 204.083C348.122 202.977 349.742 199.978 353.265 198.283C354.409 197.728 356.762 196.593 359.179 197.25C361.269 197.817 361.977 199.328 365.97 206.333C369.785 212.988 370.986 214.863 372.349 218.755C373.323 221.515 373.802 222.893 373.669 223.976C372.84 230.69 361.262 234.148 358.121 235.205C354.956 236.262 351.651 236.837 348.315 236.912C347.385 236.762 346.466 236.551 345.563 236.281C343.831 237.609 340.522 240.057 335.994 243.013C316.039 256.047 293.262 235.333 324.548 219.8C326.327 218.925 328.059 217.959 329.737 216.904" fill="#EFAD9E"/>
<path d="M248.046 309.666C228.308 324.836 210.517 331.812 197.921 335.329C187.534 338.227 164.621 344.631 159.745 334.911C158.372 332.171 157.258 327.478 165.476 312.407C174.76 295.369 187.74 279.687 208.609 262.461C213.618 258.324 231.011 244.256 256.684 230.705C281.882 217.41 294.074 215.684 302.789 215.599C308.857 215.539 319.469 215.557 328.575 221.242C332.672 223.785 339.11 229.176 344.824 235.946C345.077 236.236 345.276 236.49 345.441 236.693C351.8 244.498 363.755 259.177 361.586 272.907C359.665 284.986 347.702 290.527 335.77 296.127C324.35 301.485 314.738 303.593 308.412 303.489C293.932 303.255 273.664 304.251 248.043 309.666" fill="#FFCF87"/>
<path d="M633.407 513.047H510.611L463.829 697.779H476.695L526.984 530.761H617.032L667.32 697.779H680.186L633.407 513.047V513.047Z" fill="#574439"/>
<path d="M653.078 526.199H625.277C624.41 526.199 623.562 525.941 622.841 525.459C622.12 524.977 621.559 524.293 621.227 523.492C620.895 522.691 620.808 521.81 620.977 520.959C621.146 520.109 621.563 519.328 622.176 518.714C622.998 517.892 624.114 517.43 625.277 517.43H653.078C653.281 517.43 653.477 517.361 653.633 517.233C653.79 517.105 653.897 516.927 653.938 516.729L685.88 355.521C686.106 354.381 686.777 353.377 687.743 352.73C688.71 352.083 689.894 351.847 691.035 352.072C691.6 352.184 692.137 352.406 692.616 352.725C693.096 353.045 693.507 353.456 693.828 353.934C694.148 354.413 694.371 354.95 694.484 355.514C694.596 356.079 694.597 356.661 694.485 357.225L662.537 518.448C662.094 520.631 660.911 522.595 659.188 524.007C657.465 525.419 655.307 526.193 653.078 526.199V526.199Z" fill="#574439"/>
<path d="M470.847 520.061H650.357C652.218 520.06 654.002 519.322 655.319 518.008C655.971 517.357 656.489 516.583 656.841 515.732C657.194 514.881 657.375 513.968 657.375 513.047C657.375 511.186 656.636 509.402 655.32 508.086C654.003 506.77 652.218 506.031 650.357 506.031H470.847C469.007 506.063 467.253 506.816 465.964 508.128C464.674 509.44 463.951 511.206 463.951 513.046C463.951 514.886 464.674 516.652 465.964 517.964C467.253 519.276 469.007 520.029 470.847 520.061V520.061ZM668.608 415.065C667.568 415.065 666.541 414.834 665.601 414.389C664.662 413.943 663.833 413.295 663.174 412.49C662.516 411.685 662.044 410.745 661.794 409.736C661.543 408.726 661.52 407.674 661.726 406.655L681.265 310.26C681.637 308.437 682.718 306.836 684.269 305.808C685.821 304.782 687.717 304.414 689.541 304.785C691.364 305.156 692.966 306.236 693.994 307.786C694.503 308.555 694.855 309.416 695.031 310.32C695.207 311.225 695.202 312.155 695.018 313.058L675.479 409.453C675.155 411.036 674.295 412.459 673.043 413.482C671.791 414.505 670.224 415.064 668.608 415.065V415.065Z" fill="#A38A7C"/>
<path d="M507.225 63.0533C502.558 68.3399 489.42 83.2288 489.949 102.767C490.203 112.175 505.81 145.381 509.201 155.045C512.058 163.197 513.25 167.759 511.175 172.131C507.893 179.015 498.922 179.192 497.104 186.96C496.85 188.029 496.493 189.671 497.104 191.484C498.48 195.554 502.919 195.017 504.755 198.775C506.734 202.803 503.112 206.404 505.264 208.827C507.451 211.304 512.918 209.438 513.403 211.089C513.657 211.989 512.054 212.571 512.17 213.853C512.33 215.718 515.833 215.943 519.081 218.88C520.65 220.299 521.275 221.629 522.041 222.901C525.414 228.525 531.648 233.347 534.383 235.468C544.966 243.661 563.552 244.093 577.822 240.495C587.394 238.076 594.08 234.081 597.565 231.953C633.023 210.214 650.751 199.348 659.761 182.689C678.433 148.161 664.482 99.8292 639.521 71.0964C633.302 63.9355 613.121 41.4085 579.793 37.4208C576.697 37.0496 534.088 32.6292 507.232 63.0533" fill="#EFAD9E"/>
<path d="M622.304 244.172C620.427 234.021 622.487 228.028 624.65 224.462C624.65 224.462 626.784 220.948 641.488 210.336L595.584 201.288L568.93 237.48L579.292 241.5C578.392 243.869 576.736 247.059 573.546 249.243C566.854 253.82 560.92 248.836 555.665 252.373C546.877 258.291 550.168 281.21 550.168 281.21C554.96 287.567 564.505 297.994 579.356 301.976C604.388 308.679 634.368 294.347 652.212 265.329C646.426 259.843 640.142 254.905 633.443 250.581C629.839 248.26 626.121 246.121 622.304 244.17" fill="#EFAD9E"/>
<path d="M516.464 114.309L516.685 103.756C516.685 103.756 552.939 82.4843 572.174 116.842C572.174 116.842 541.788 96.5217 516.47 114.299" fill="#49312F"/>
<path d="M582.784 165.638C588.717 172.535 586.246 184.56 577.27 192.5C568.292 200.438 556.198 201.268 550.264 194.366C544.329 187.465 546.8 175.445 555.781 167.51C564.762 159.576 576.85 158.737 582.784 165.638" fill="#FF8E91"/>
<path d="M538.693 178.178C542.314 177.438 545.764 176.03 548.868 174.025C567.556 161.926 567.65 131.914 567.607 128.189C562.999 124.778 557.776 122.291 552.223 120.865C540.209 117.851 530.429 121.119 526.146 122.899C524.669 123.62 523.337 124.608 522.219 125.813C511.75 137.132 517.991 170.365 532.411 176.927C534.386 177.817 536.539 178.24 538.704 178.164" fill="white"/>
<path d="M517.752 153.16C520.201 168.491 528.69 179.832 536.719 178.503C544.749 177.173 549.272 163.668 546.82 148.343C544.367 133.019 535.882 121.673 527.853 123.004C519.822 124.333 515.299 137.836 517.752 153.16V153.16Z" fill="black"/>
<path d="M523.303 138.375C522.894 143.156 524.598 147.212 527.098 147.435C529.598 147.66 531.966 143.96 532.376 139.179C532.785 134.398 531.082 130.337 528.575 130.116C526.07 129.895 523.711 133.59 523.303 138.375Z" fill="#E6EDE5"/>
<path d="M630.631 227.432C628.442 227.307 626.33 226.582 624.526 225.337C621.107 222.679 619.921 218.283 619.767 213.86C619.258 199.788 619.767 200.789 619.767 200.789C619.767 200.789 630.625 198.783 634.575 184.703C638.169 171.896 636.338 154.464 625.691 150.025C620.196 147.736 613.112 149.188 608.648 152.787C606.514 154.511 605.487 156.324 600.255 168.873C595.404 180.522 593.921 184.657 592.37 184.454C591.492 184.339 590.424 182.948 589.653 177.168C589.441 162.159 588.864 147.157 587.924 132.175C586.682 112.496 585.504 104.018 580.038 94.9827C577.317 90.4978 572.604 82.5224 563.505 78.6447C544.042 70.354 521.994 85.8437 516.856 89.4549C501.269 100.389 495.744 113.254 491.436 111.324C487.335 109.482 488.983 96.3884 490.695 88.9461C495.322 68.8816 508.309 55.9284 513.155 51.5017C535.681 30.9179 563.184 29.2889 576.828 28.375C589.073 27.5542 609.735 26.4394 632.118 37.9297C653.202 48.7516 665.51 67.0507 671.113 75.1245C672.164 76.6508 676.079 82.3172 679.253 88.4447C692.709 114.41 697.645 157.641 677.03 192.245C660.413 220.152 635.433 227.744 630.633 227.432" fill="#49312F"/>
<path d="M620.758 166.602C615.939 169.242 611.856 173.074 609.661 177.954C607.26 182.74 606.792 188.301 607.43 193.748C605.599 188.517 605.947 182.476 608.358 177.336C610.818 172.225 615.422 168.148 620.758 166.602Z" fill="#BC8680"/>
<path d="M608.909 178.667C611.759 178.92 614.411 180.777 615.933 183.327C617.36 185.919 617.606 189.176 616.311 191.737C616.414 188.94 616.043 186.264 614.679 184.039C613.463 181.751 611.346 180.052 608.909 178.667Z" fill="#BC8680"/>
<path d="M634.006 57.8483L597.985 48.2259L600.705 6.19619C600.705 6.19619 623.406 -9.10523 652.054 18.7305L634.006 57.8483V57.8483Z" fill="#49312F"/>
<path d="M374.154 595.07L456.421 601.04C457.992 601.148 459.543 600.63 460.734 599.6C461.925 598.57 462.66 597.11 462.78 595.54L462.832 594.815C462.94 593.244 462.422 591.694 461.392 590.503C460.361 589.313 458.901 588.577 457.331 588.458L375.067 582.487C373.496 582.379 371.945 582.897 370.754 583.928C369.563 584.958 368.827 586.417 368.708 587.988L368.654 588.712C368.545 590.284 369.062 591.834 370.093 593.026C371.124 594.217 372.585 594.952 374.156 595.07" fill="#3B3E44"/>
<path d="M451.882 550.56L459.244 575.937C459.244 575.937 460.007 590.713 448.11 589.849C436.214 588.984 383.832 587.942 383.832 587.942C383.832 587.942 369.185 586.876 377.305 576.43C385.424 565.983 411.457 562.337 411.457 562.337L431.607 550.917L451.882 550.56Z" fill="#EFAD9E"/>
<path d="M428.377 592.074C425.763 588.453 423.158 585.045 420.426 581.854C417.651 578.713 414.774 575.75 411.524 573.429C408.314 571.105 404.669 569.452 400.805 568.569C396.873 567.509 392.724 568.04 388.219 568.277C391.971 566.019 396.496 564.152 401.276 564.554C406.024 564.719 410.687 566.52 414.548 569.234C418.248 572.023 421.36 575.516 423.705 579.512C426.007 583.4 427.741 587.624 428.382 592.074H428.377ZM460.996 639.207L541.93 623.309C543.475 623.002 544.836 622.095 545.715 620.788C546.594 619.48 546.919 617.878 546.62 616.331L546.48 615.614C546.17 614.07 545.262 612.711 543.953 611.833C542.645 610.955 541.043 610.629 539.496 610.927L458.572 626.826C457.027 627.135 455.667 628.042 454.788 629.349C453.91 630.656 453.584 632.258 453.882 633.804L454.021 634.523C454.33 636.068 455.239 637.428 456.547 638.306C457.856 639.183 459.459 639.507 461.006 639.207" fill="#3B3E44"/>
<path d="M524.259 575.815L538.039 598.358C538.039 598.358 542.674 612.413 530.969 614.712C519.263 617.01 468.456 629.796 468.456 629.796C468.456 629.796 454.044 632.624 459.123 620.405C464.203 608.186 488.374 597.829 488.374 597.829L504.808 581.509L524.259 575.815V575.815Z" fill="#EFAD9E"/>
<path d="M512.516 622.048C509.041 619.251 505.633 616.639 502.156 614.279C498.652 611.975 495.098 609.885 491.339 608.494C487.631 607.101 483.682 606.466 479.725 606.627C475.655 606.627 471.791 608.242 467.515 609.659C470.535 606.495 474.408 603.502 479.129 602.632C483.756 601.542 488.732 602.053 493.165 603.65C497.466 605.368 501.385 607.918 504.699 611.153C507.95 614.31 510.736 617.918 512.524 622.048" fill="#3B3E44"/>
<path d="M644.607 411.436C651.429 434.404 656.373 451.847 651.294 473.917C649.513 481.601 644.729 502.461 626.876 517.667C602.64 538.314 563.541 540.255 546.514 535.638C541.172 534.191 539.392 534.367 539.043 535.044C537.873 537.363 554.541 543.944 554.681 553.513C554.762 558.681 549.985 562.627 542.625 568.517C534.813 574.792 530.777 576.145 518.916 582.889C505.746 590.388 500.373 594.627 487.254 600.326C477.786 604.436 475.604 604.394 473.839 603.818C463.555 600.484 462.423 577.777 461.866 568.031C456.84 480.078 441.935 452.474 458.18 442.122C470.033 434.58 490.576 443.585 509.528 446.24C541.274 450.699 546.946 453.268 558.072 450.139C560.011 449.612 561.9 448.913 563.716 448.053C566.374 446.765 586.354 435.806 597.25 418.526C617.09 387.11 602.101 346.584 609.735 344.399C617.034 342.314 634.83 378.503 644.609 411.424" fill="#261917"/>
<path d="M477.105 429.013C469.553 428.7 458.308 429.522 449.367 436.739C440.211 444.148 439.246 453.738 435.197 467.836C422.734 511.214 396.026 539.476 406.935 551.382C407.189 551.658 407.467 551.913 407.763 552.145C411.875 555.346 416.893 555.412 418.446 555.428C423.889 555.488 441.889 557.655 467.424 560.827" fill="#261917"/>
<path d="M562.997 401.15C557.655 406.564 549.164 413.575 537.286 417.247C520.898 422.308 513.839 416.145 496.992 421.196C481.971 425.707 465.659 436.906 466.913 446.252C467.409 449.918 470.525 452.696 473.692 454.667C476.711 455.259 496.356 458.794 509.526 446.252C512.281 443.611 514.543 440.501 516.207 437.067C516.207 437.067 538.769 440.408 551.309 438.733C563.709 437.085 585.105 419.075 585.558 418.697" fill="#EFAD9E"/>
<path d="M615.045 374.18C590.212 401.275 570.952 405.743 558.293 405.166C532.147 403.967 537.652 425.578 505.972 424.881C486.361 424.454 481.808 412.332 472.114 403.439C465.827 397.677 459.244 390.925 459.254 389.87C459.528 359.825 502.083 329.638 517.535 285.546C519.274 280.585 520.901 271.257 528.763 263.105C537.619 253.91 548.978 251.407 554.773 250.136C560.947 248.777 565.949 248.795 570.863 248.795C571.626 248.795 573.984 248.511 573.995 249.245C574.026 252.475 568.865 260.417 567.735 268.904C566.537 277.952 568.345 289.757 573.099 291.249C576.676 292.366 580.107 287.094 590.531 276.053C615.651 249.451 625.316 248.727 628.175 248.671C632.209 248.597 636.06 250.154 643.732 253.247C649.813 255.714 660.519 260.05 669.865 269.498C680.242 279.992 683.854 291.677 685.89 298.354C691.205 315.646 690.081 332.058 685.89 351.227C675.115 400.439 650.897 436.853 642.414 449.009C615.516 487.59 593.306 519.448 567.554 516.211C547.338 513.668 533.183 490.527 523.281 474.362C511.242 454.69 508.048 437.029 505.985 424.865C502.533 404.659 498.666 382.613 510.008 373.358C518.227 366.655 529.274 370.632 543.817 371.752C561.432 373.102 587.087 370.48 620.166 351.25" fill="#FF7B6F"/>
<path opacity="0.3" d="M501.814 380.964C510.801 371.87 520.718 363.624 531.645 356.948C542.539 350.239 554.368 345.183 566.746 341.945C572.851 340.279 578.913 338.7 584.671 336.275C590.44 333.825 595.95 330.808 601.12 327.267C611.49 320.178 620.413 311.016 627.734 300.736C620.749 311.244 612.084 320.742 601.822 328.254C596.683 332.015 591.18 335.252 585.396 337.917C579.587 340.592 573.442 342.405 567.426 344.249C555.432 347.792 544.031 353.096 533.596 359.987C523.168 366.822 513.784 375.141 505.321 384.283L501.814 380.964Z" fill="black"/>
<path d="M484.103 403.451C481.753 403.377 468.897 403.268 461.012 413.343C460.559 413.923 452.385 424.608 456.617 430.931C460.162 436.241 469.935 434.722 473.105 434.236C483.279 432.662 489.383 425.967 491.797 423.241C495.066 419.559 500.307 413.644 498.398 408.955C496.309 403.839 487.081 403.553 484.103 403.457" fill="#EFAD9E"/>
<path opacity="0.3" d="M540.691 296.834C537.568 308.595 534.077 319.895 531.196 331.417C529.715 337.162 528.238 342.925 527.08 348.76C525.97 354.681 524.545 360.538 522.812 366.307C522.603 360.237 522.725 354.159 523.179 348.102C523.555 342.021 524.854 336.059 526.287 330.151C529.38 318.403 533.917 306.955 540.691 296.813V296.834ZM576.9 291.47C567.235 300.276 557.997 309.034 549.809 318.817C541.507 328.498 534.329 338.99 527.286 350.012C530.847 337.391 537.651 325.76 546.128 315.681C554.687 305.68 565.073 297.118 576.906 291.46" fill="black"/>
<path d="M506.138 209.255C511.172 209.836 515.701 209.807 520.085 208.65C524.477 207.566 528.478 205.428 532.642 202.546C530.673 207.286 526.08 210.816 520.962 212.113C515.844 213.41 510.113 212.5 506.138 209.255Z" fill="#AF5354"/>
<path d="M80.4965 513.047H203.293L250.071 697.779H237.205L186.919 530.761H96.8692L46.5797 697.779H33.7163L80.4954 513.047H80.4965Z" fill="#574439"/>
<path d="M88.6241 526.199H60.8226C58.5978 526.194 56.4425 525.423 54.7199 524.016C52.9972 522.608 51.8124 520.65 51.365 518.471L19.4151 357.226C19.2338 356.37 19.3128 355.48 19.6418 354.67C19.9709 353.86 20.5349 353.167 21.2613 352.68C21.9874 352.194 22.8424 351.935 23.7166 351.937C24.5909 351.939 25.4446 352.202 26.1684 352.692C26.649 353.018 27.0601 353.436 27.3776 353.921C27.6951 354.407 27.9127 354.952 28.0178 355.523L59.9656 516.745C60.0091 516.939 60.1177 517.113 60.2736 517.238C60.4295 517.362 60.6232 517.429 60.8226 517.428H88.6241C89.7705 517.453 90.8615 517.926 91.6634 518.746C92.4652 519.565 92.9143 520.666 92.9143 521.813C92.9143 522.959 92.4652 524.06 91.6634 524.879C90.8615 525.699 89.7705 526.172 88.6241 526.197V526.199Z" fill="#574439"/>
<path d="M243.051 520.061H63.5365C61.6757 520.061 59.8911 519.322 58.5744 518.008C57.9227 517.356 57.4057 516.583 57.053 515.732C56.7002 514.881 56.5187 513.968 56.5187 513.047C56.5187 511.186 57.2581 509.402 58.5742 508.086C59.8903 506.77 61.6753 506.031 63.5365 506.031H243.051C244.674 506.032 246.247 506.595 247.501 507.625C248.756 508.654 249.614 510.087 249.931 511.678C250.247 513.27 250.003 514.922 249.238 516.353C248.473 517.784 247.236 518.906 245.736 519.528C244.885 519.88 243.972 520.061 243.051 520.061V520.061ZM45.2931 415.065C43.6758 415.063 42.1088 414.503 40.8575 413.478C39.6062 412.454 38.7474 411.028 38.4266 409.443L18.8851 313.048C18.5147 311.225 18.8837 309.329 19.911 307.778C20.9383 306.226 22.5398 305.146 24.3635 304.775C26.1872 304.404 28.0834 304.773 29.6352 305.8C31.1871 306.827 32.2676 308.428 32.6393 310.251L52.1787 406.646C52.3621 407.549 52.3658 408.479 52.1894 409.383C52.013 410.287 51.6601 411.148 51.1508 411.916C50.6415 412.683 49.9859 413.343 49.2213 413.858C48.4567 414.372 47.5983 414.731 46.695 414.913C46.2337 415.011 45.764 415.062 45.2931 415.065Z" fill="#A38A7C"/>
<path d="M252.499 600.097L279.761 576.852C280.553 576.172 281.043 575.207 281.126 574.167C281.208 573.127 280.876 572.096 280.201 571.301L279.692 570.706C279.013 569.914 278.047 569.423 277.007 569.34C275.966 569.258 274.935 569.591 274.14 570.266L246.87 593.508C246.078 594.187 245.586 595.152 245.503 596.192C245.42 597.232 245.752 598.263 246.427 599.059L246.936 599.655C247.616 600.446 248.582 600.936 249.622 601.019C250.663 601.102 251.693 600.77 252.491 600.097" fill="#3B3E44"/>
<path d="M245.252 562.009L270.034 564.875C270.034 564.875 277.064 566.327 272.61 571.777C268.157 577.226 255.896 590.985 249.059 592.677C242.223 594.368 240.396 589.308 240.396 589.308L230.875 574.261L245.252 562.009V562.009ZM276.708 530.115L282.179 545.038C282.179 545.038 287.07 552.476 292.531 547.834C297.992 543.194 323.021 524.022 323.021 524.022C323.021 524.022 329.741 518.293 322.082 516.117C314.424 513.94 300.508 521.456 300.508 521.456L286.668 523.099L276.708 530.115Z" fill="#F0AE9F"/>
<path d="M246.833 595.713C240.439 595.205 242.11 588.904 242.11 588.904C247.327 578.497 258.329 579.957 258.329 579.957C256.548 572.798 265.041 564.415 265.041 564.415C265.041 564.415 274.475 561.241 276.301 569.343" stroke="#3B3E44" stroke-width="0.96" stroke-miterlimit="10"/>
<path d="M302.906 541.876C301.634 539.487 300.971 536.826 300.696 534.115C300.412 531.345 300.677 528.545 301.475 525.876C302.38 523.189 304.002 520.65 306.246 518.881C308.418 516.984 311.277 516.276 313.9 516.035C311.634 517.528 309.433 518.743 307.902 520.659C306.343 522.463 305.165 524.562 304.437 526.833C303.687 529.121 303.344 531.575 303.118 534.09C302.931 536.611 302.884 539.176 302.906 541.876Z" fill="#3B3E44"/>
<path d="M149.114 339.169L157.066 282.14L107.184 292.312C111.593 301.636 115.997 310.967 120.397 320.305C129.971 326.591 139.544 332.878 149.114 339.169Z" fill="#F0AE9F"/>
<path d="M309.567 490.479L165.705 367.123L135.097 403.04L133.727 401.183L86.2742 457.107C68.1155 549.352 207.249 515.707 203.678 601.533C203.629 602.714 205.423 603.71 207.035 604.496C211.469 606.66 219.913 605.562 249.905 577.032C263.734 563.875 272.128 554.4 285.456 539.31C309.187 512.419 316.333 501.675 312.854 494.326C312.095 492.788 310.965 491.463 309.567 490.47" fill="#FFCF87"/>
<path d="M110.893 304.844C128.444 328.699 145.74 341.614 153.296 337.518C162.393 332.577 155.782 303.804 154.983 300.432C159.091 299.779 163.212 299.218 167.345 298.748C178.791 297.449 181.243 297.881 182.522 298.186C189.391 299.824 193.554 305.159 196.003 308.299C204.474 319.133 212.6 352.885 216.303 398.281C195 405.32 172.824 409.373 150.407 410.322C124.536 411.418 113.556 409.585 97.6226 405.999L94.731 398.279C88.6412 397.445 82.5268 396.802 76.3967 396.352C63.5926 395.414 102.286 305.443 110.888 304.841" fill="#FFCF87"/>
<path opacity="0.42" d="M149.902 341.679C150.594 347.851 150.296 354.095 149.02 360.173C146.499 372.514 140.384 383.833 131.444 392.708C127.053 397.108 121.987 400.778 116.437 403.579C126.102 395.991 134.242 386.865 139.919 376.273C145.68 365.722 148.855 353.918 149.893 341.669" fill="black"/>
<path d="M135.692 371.686C137.632 367.253 140.808 360.083 141.049 359.48C144.159 351.596 146.899 343.56 148.509 335.238C150.485 325.015 150.735 314.513 152.876 304.321C153.027 303.619 153.181 301.694 154.543 299.949C155.849 298.265 157.564 297.584 158.92 297.063C162.666 295.621 165.983 296.122 168.474 296.501C171.091 296.898 172.412 297.099 173.53 298.185C175.491 300.092 175.285 303.215 175.216 304.367C174.622 314.094 175.26 323.906 174.093 333.583C172.528 346.552 171.714 355.665 167.805 364.672C166.888 366.658 165.793 368.556 164.536 370.346C161.376 374.992 156.826 378.971 151.134 379.82C145.179 380.708 139.022 378.549 134.183 375.16C134.165 375.16 134.797 373.697 135.682 371.683" fill="#A67D41"/>
<path opacity="0.2" d="M134.863 373.75C133.676 372.051 132.275 370.513 130.694 369.173C129.111 367.77 127.6 366.289 126.167 364.735C123.319 361.592 120.747 358.21 118.477 354.627C116.373 351.081 114.13 347.619 111.754 344.249C109.381 340.875 106.896 337.559 104.403 334.138C107.858 336.59 111.016 339.434 113.814 342.614C115.249 344.18 116.549 345.846 117.839 347.547C119.129 349.249 120.217 351.107 121.328 352.832C123.488 356.31 125.833 359.723 128.196 363.077L131.915 368.068C133.187 369.762 134.334 371.69 134.858 373.742L134.863 373.75ZM200.226 356.338C199.389 352.806 198.74 349.32 198.048 345.854C197.356 342.387 196.672 338.939 195.898 335.512C195.186 332.073 194.373 328.646 193.576 325.21C192.78 321.775 191.926 318.323 191.234 314.761C195.166 320.864 197.621 327.761 199.19 334.802C200.666 341.862 201.278 349.157 200.226 356.338" fill="#010103"/>
<path d="M330.09 524.163L292.661 556.064C291.892 556.688 290.908 556.986 289.921 556.895C288.934 556.805 288.022 556.332 287.379 555.578C286.736 554.824 286.413 553.848 286.479 552.86C286.546 551.871 286.996 550.947 287.734 550.286L325.164 518.385C325.542 518.053 325.982 517.799 326.459 517.639C326.937 517.478 327.441 517.414 327.943 517.45C328.445 517.486 328.935 517.622 329.385 517.849C329.834 518.077 330.234 518.391 330.56 518.774C330.887 519.157 331.134 519.601 331.287 520.081C331.441 520.56 331.497 521.065 331.453 521.567C331.41 522.068 331.266 522.556 331.032 523.002C330.798 523.447 330.478 523.842 330.09 524.163" fill="#3B3E44"/>
<path d="M162.049 468.101L244.833 568.595C244.833 568.595 251.637 575.431 250.429 577.434C249.22 579.438 233.719 591.835 233.719 591.835C233.719 591.835 231.29 593.763 228.886 590.95C226.484 588.138 146.77 482.112 146.77 482.112L162.049 468.101V468.101ZM210.065 368.98C209.799 368.511 209.411 368.123 208.942 367.856C207.273 366.953 205.027 368.135 204.444 368.418C199.281 370.96 169.9 379.371 152.522 381.595C144.065 382.676 137.006 382.48 128.765 382.247C120.4 382.008 115.331 381.837 108.504 380.316C104.179 379.353 99.2244 378.246 93.0636 375.484C88.0962 373.257 87.5746 372.298 86.3103 372.588C81.8412 373.619 83.6377 393.186 84.3805 408.281C84.7867 416.464 83.406 422.099 85.794 427.098C86.1251 427.79 87.4328 429.927 90.172 432.398C99.2244 440.556 112.555 441.38 117.896 441.451C130.642 441.413 143.385 441.038 156.112 440.327C164.538 439.854 174.55 439.137 187.021 436.956C212.037 432.577 215.903 427.455 217.369 424.594C218.625 422.14 218.385 417.728 217.931 408.863C217.444 399.957 216.127 391.116 213.996 382.455C212.893 377.904 211.58 373.407 210.063 368.977" fill="#A67D41"/>
<path opacity="0.8" d="M179.712 416.174C172.933 415.567 168.52 413.207 166.232 411.681C164.243 410.366 161.234 408.324 161.172 405.504C161.172 405.249 161.136 403.523 162.299 402.692C163.316 401.971 164.776 402.254 165.669 402.692C168.938 404.291 168.879 410.066 169.604 409.995C170.329 409.924 169.388 404.815 172.415 401.567C172.857 401.095 174.15 399.706 175.788 399.885C177.059 400.019 178.199 401.077 178.585 402.129C179.193 403.734 178.331 405.944 174.091 410.557C170.384 414.571 166.236 418.153 161.727 421.237" stroke="#0D0A05" stroke-width="0.9" stroke-linecap="round" stroke-linejoin="round"/>
<path d="M188.141 435.279C175.678 437.463 165.655 438.177 157.231 438.65C144.504 439.362 131.76 439.737 119.013 439.774C113.673 439.704 100.342 438.88 91.2893 430.721C88.549 428.25 87.2424 426.114 86.9112 425.422C84.5201 420.425 85.8944 414.787 85.4977 406.604C85.1411 399.369 84.5455 391.107 84.5106 384.346C84.3581 384.344 84.2059 384.361 84.0577 384.397C79.5855 385.415 81.381 404.995 82.1247 420.088C82.5289 428.276 81.1503 433.908 83.5382 438.905C83.8694 439.599 85.1771 441.738 87.9131 444.204C96.9708 452.362 110.298 453.186 115.638 453.258C128.384 453.221 141.127 452.846 153.853 452.133C162.28 451.657 172.294 450.945 184.765 448.764C207.713 444.746 212.643 440.372 215.113 436.402C216.995 433.379 217.356 430.073 217.809 423.911C215.072 427.602 209.189 431.594 188.136 435.279H188.141ZM138.685 371.79C144.123 372.723 162.88 369.066 172.405 366.17C187.667 361.539 195.279 359.219 198.256 357.742C198.681 357.531 200.056 356.837 201.629 357.18C205.047 357.943 207.199 363.133 207.25 365.607C207.504 379.286 145.08 390.652 138.123 383.024C136.359 380.94 135.193 378.417 134.75 375.723C134.463 373.732 134.819 372.835 135.315 372.351C136.348 371.334 138.214 371.708 138.685 371.79" fill="#D9B580"/>
<path d="M126.264 455.552C126.559 455.953 126.845 456.347 127.114 456.733C133.183 456.825 137.756 459.844 138.54 460.381C150.27 466.763 140.32 472.446 140.32 472.446C141.459 472.897 144.566 474.301 146.504 477.695C147.14 478.799 148.437 481.065 147.951 483.521C147.531 485.645 146.074 486.453 139.364 490.932C132.992 495.193 131.207 496.526 127.409 498.169C124.726 499.33 123.385 499.906 122.294 499.852C115.538 499.496 111.268 488.19 109.996 485.133C108.719 482.05 107.914 478.793 107.607 475.47C107.691 474.529 107.836 473.595 108.043 472.673C106.596 471.037 103.919 467.91 100.651 463.602C86.2435 444.617 105.313 420.441 123.009 450.57C124.008 452.281 125.094 453.939 126.264 455.538" fill="#EFAD9E"/>
<path d="M110.173 306.055C106.103 304.684 99.3217 303.041 91.9399 304.928C54.8216 314.426 52.769 400.253 52.3977 415.576C52.3977 415.576 50.6678 459.388 67.5548 472.408C70.4569 474.636 73.8374 476.159 77.4293 476.856C79.1485 477.11 83.0812 477.443 90.3561 474.605C94.822 472.866 97.0734 471.285 104.976 466.1C117.821 457.675 124.261 453.495 124.638 453.258C132.212 448.51 143.43 438.298 144.822 427.205C146.806 411.115 144.273 394.79 137.509 380.056C131.745 367.563 123.132 356.689 114.174 346.35C112.287 344.173 109.023 341.628 107.845 338.998C106.597 336.201 107.779 331.967 108.069 328.826C108.258 326.792 110.928 306.309 110.173 306.055" fill="#FFCF87"/>
<path opacity="0.8" d="M216.19 398.128C193.01 409.036 169.867 414.599 144.774 415.581" stroke="#0D0A05" stroke-width="0.9" stroke-linecap="round" stroke-linejoin="round"/>
<path d="M152.735 339.763C132.833 325.821 125.5 319.405 122.721 316.168C119.366 312.274 115.344 308.933 112.122 304.928C111.903 304.641 111.656 304.377 111.384 304.139C111.384 304.139 111.18 303.967 110.946 303.804C109.334 302.658 107.485 301.891 105.535 301.558C104.636 301.451 104.88 301.612 103.29 301.558C101.019 301.48 99.6476 301.118 98.7938 300.993C96.2493 300.631 92.6891 301.574 91.4882 303.244C88.9448 306.751 95.3034 315.371 98.7928 320.098C99.9428 321.655 103.345 325.569 112.841 335.268C116.926 339.44 121.243 343.379 125.77 347.067C134.643 354.297 142.741 360.775 147.136 358.304C148.22 357.694 149.268 356.43 149.815 353.811" fill="#A67D41"/>
<path d="M47.2293 146.073C51.7015 137.022 66.3931 108.374 99.6275 95.2586C104.519 93.3325 146.508 77.5762 181.277 102.062C188.251 106.975 206.763 120.012 209.667 140.598C212.928 163.764 194.407 182.266 204.517 198.448C209.751 206.839 214.211 211.77 214.211 211.77C217.348 214.912 220.282 218.251 222.995 221.766C228.701 229.158 228.62 231.111 228.446 232.06C227.605 236.675 220.691 237.024 220.491 241.155C220.343 244.174 224.656 246.13 223.598 249.631C223.469 250.066 223.265 250.475 222.995 250.839C220.895 253.616 223.169 259.701 216.329 268.406C213.765 271.668 212.946 272.884 211.783 274.763C208.653 279.849 212.618 284.012 209.97 288.091C208.291 290.67 205.559 291.246 199.972 292.633C191.748 294.667 183.674 297.309 175.433 299.298C159.47 303.155 160.412 303.554 156.535 303.849C146.615 304.592 138.887 301.889 133.897 300.381C91.5083 287.577 70.3078 281.174 56.5366 266.45C27.9829 235.935 29.2874 182.396 47.2261 146.073" fill="#EFAD9E"/>
<path d="M176.057 156.707C176.057 156.707 177.505 153.655 174.954 151.621C174.954 151.621 150.574 135.756 143.22 172.359C143.22 172.359 154.453 146.349 176.057 156.702" fill="#49312F"/>
<path d="M151.51 252.96C150.07 262.54 159.112 271.981 171.701 274.044C184.289 276.107 195.664 270.021 197.103 260.441C198.543 250.862 189.504 241.421 176.912 239.356C164.322 237.29 152.949 243.381 151.51 252.96V252.96Z" fill="#FF8E91"/>
<path d="M179.989 229.112C176.064 229.326 172.133 228.809 168.397 227.586C145.887 220.174 137.684 189.295 136.715 185.45C140.54 180.693 145.249 176.721 150.582 173.752C162.135 167.395 173.093 168.138 177.984 168.814C179.702 169.154 181.341 169.812 182.817 170.755C196.657 179.58 199.208 215.485 186.123 226.147C184.329 227.594 182.227 228.611 179.978 229.12" fill="white"/>
<path d="M194.804 197.694C196.422 214.137 190.734 228.115 182.119 228.916C173.504 229.718 165.192 217.028 163.569 200.585C161.947 184.143 167.639 170.162 176.256 169.366C184.874 168.57 193.189 181.252 194.804 197.694" fill="black"/>
<path d="M185.077 183.968C186.791 188.782 186.137 193.418 183.617 194.323C181.096 195.228 177.668 192.055 175.956 187.241C174.244 182.427 174.897 177.791 177.415 176.891C179.933 175.991 183.367 179.154 185.077 183.968V183.968Z" fill="#E6EDE5"/>
<path d="M98.6213 304.653C100.839 303.927 102.815 302.608 104.337 300.839C107.134 297.177 107.17 292.336 106.137 287.738C102.83 273.111 102.602 274.278 102.602 274.278C102.602 274.278 90.8787 275.145 83.0155 261.713C75.8506 249.507 73.0247 231.051 82.7902 223.6C87.8306 219.757 95.5075 219.346 101.075 221.847C103.743 223.048 105.288 224.645 114.06 236.144C122.2 246.824 124.853 250.687 126.41 250.058C127.277 249.703 128.001 247.981 127.233 241.822C123.393 226.312 119.933 210.711 116.856 195.032C112.817 174.435 111.741 165.379 114.938 154.6C116.523 149.246 136.721 119.378 154.73 117.056L175.007 142.612C194.02 149.681 206.674 147.214 210.594 144.059C214.318 141.06 209.083 131.447 205.312 124.26C195.137 104.842 178.253 95.0155 172.067 91.764C143.325 76.6508 114.546 82.4007 100.246 85.152C87.419 87.6133 65.8418 92.0379 45.8972 109.915C27.1079 126.754 19.378 148.924 15.7892 158.74C15.1121 160.591 12.6205 167.487 11.0028 174.658C4.16059 205.029 10.7605 250.88 41.3361 280.953C65.9889 305.197 93.765 306.276 98.6255 304.655" fill="#49312F"/>
<path d="M92.3536 239.353C98.0278 240.772 103.26 243.616 106.852 248.048C110.616 252.325 112.6 257.924 113.413 263.707C113.627 260.735 113.266 257.751 112.351 254.916C111.422 252.044 109.955 249.376 108.027 247.053C106.025 244.802 103.664 242.832 100.948 241.533C98.2722 240.207 95.3454 239.464 92.361 239.353" fill="#BC8680"/>
<path d="M107.814 248.579C104.947 249.596 102.726 252.238 101.839 255.272C101.077 258.324 101.697 261.751 103.719 264.034C102.862 261.174 102.523 258.329 103.322 255.669C103.953 252.968 105.68 250.661 107.814 248.579Z" fill="#BC8680"/>
<path d="M58.6463 150.126C74.617 145.343 105.85 129.083 115.734 115.663C155.994 60.9886 89.7466 57.8174 84.4481 57.9518C62.2329 58.5145 29.992 67.6947 7.94511 103.217C-1.17075 117.89 -4.19032 168.957 58.6452 150.126H58.6463Z" fill="#49312F"/>
<path d="M221.412 258.557C214.528 284.025 204.404 257.697 195.125 253.121L221.412 258.557Z" fill="#AF5354"/>
<path d="M136.716 75.4184C117.843 76.2752 110.661 71.7734 107.811 81.7522C104.963 91.731 108.28 97.1319 113.481 104.295C118.682 111.459 129.073 111.253 134.194 99.7742C139.314 88.2955 137.683 84.6515 143.221 81.7522C148.758 78.854 145.482 71.5798 145.482 71.5798L136.716 75.4174V75.4184Z" fill="#FF7157"/>
<path d="M134.967 71.781C136.962 68.1275 140.994 68.9843 144.74 69.8358C148.487 70.6883 153.805 72.9635 154.981 79.0647C157.97 94.5766 152.244 92.9773 147.925 93.211C143.606 93.4437 128.049 84.4549 134.967 71.781V71.781Z" fill="#FF7157"/>
<path d="M302.57 697.779H411.33C411.33 693.255 406.881 689.586 401.39 689.586H312.51C307.019 689.586 302.57 693.255 302.57 697.779V697.779Z" fill="#574439"/>
<path d="M336.487 693.947H377.419V424.529H336.487V693.947Z" fill="#574439"/>
<path d="M377.417 530.71V424.529H336.483V564.444L377.417 530.71Z" fill="#574439"/>
<path d="M506.06 430.796H207.841C205.905 430.796 204.334 429.498 204.334 427.902V421.156C204.334 419.559 205.905 418.264 207.841 418.264H506.06C507.998 418.264 509.57 419.559 509.57 421.156V427.902C509.57 429.498 507.998 430.796 506.06 430.796Z" fill="#7F6453"/>
<path d="M484.541 406.742C482.152 406.743 479.816 406.035 477.829 404.709C475.842 403.382 474.293 401.496 473.378 399.289C472.464 397.082 472.224 394.654 472.69 392.311C473.156 389.968 474.307 387.816 475.997 386.127C477.686 384.439 479.839 383.289 482.183 382.823C484.526 382.357 486.955 382.597 489.162 383.512C491.369 384.427 493.256 385.976 494.582 387.962C495.909 389.949 496.616 392.284 496.615 394.673C496.61 397.873 495.337 400.94 493.073 403.203C490.81 405.465 487.741 406.738 484.541 406.742V406.742ZM484.541 387.866C483.195 387.866 481.879 388.265 480.76 389.013C479.641 389.761 478.768 390.823 478.253 392.067C477.738 393.31 477.603 394.678 477.865 395.998C478.128 397.318 478.776 398.53 479.727 399.482C480.679 400.433 481.892 401.082 483.212 401.344C484.532 401.607 485.9 401.473 487.144 400.958C488.388 400.443 489.451 399.572 490.199 398.453C490.947 397.334 491.347 396.019 491.347 394.673C491.345 392.869 490.627 391.139 489.352 389.863C488.076 388.587 486.346 387.869 484.541 387.866Z" fill="white"/>
<path d="M482.782 406.564C483.128 404.813 483.362 403.041 483.482 401.26C480.251 400.733 477.73 398.047 477.73 394.673C477.73 391.299 480.274 388.57 483.522 388.061V382.691C480.574 382.926 477.817 384.239 475.778 386.379C473.738 388.52 472.559 391.336 472.467 394.291C472.376 397.246 473.378 400.13 475.281 402.393C477.184 404.655 479.855 406.137 482.782 406.554V406.564V406.564Z" fill="#E1DAD5"/>
<path d="M431.044 377.768V400.146C431.044 404.098 432.995 418.148 439.242 418.148H472.029C478.276 418.148 480.227 404.098 480.227 400.146V377.768H431.044ZM225.775 394.673C225.774 392.285 226.481 389.95 227.808 387.964C229.134 385.978 231.02 384.43 233.227 383.516C235.434 382.601 237.862 382.362 240.205 382.827C242.548 383.293 244.7 384.443 246.389 386.131C248.078 387.82 249.229 389.971 249.695 392.313C250.161 394.655 249.922 397.083 249.008 399.289C248.093 401.496 246.545 403.381 244.559 404.708C242.573 406.035 240.237 406.742 237.849 406.742C234.648 406.737 231.581 405.464 229.317 403.202C227.054 400.939 225.78 397.873 225.775 394.673V394.673ZM231.041 394.673C231.042 395.68 231.265 396.674 231.696 397.583C232.127 398.493 232.754 399.296 233.532 399.935C234.311 400.573 235.221 401.031 236.198 401.276C237.174 401.521 238.193 401.546 239.181 401.35C240.842 401.023 242.321 400.089 243.331 398.731C244.34 397.373 244.808 395.687 244.641 394.003C244.475 392.319 243.687 390.757 242.431 389.623C241.175 388.488 239.541 387.862 237.849 387.866C236.043 387.868 234.313 388.585 233.036 389.861C231.76 391.138 231.042 392.868 231.041 394.673V394.673Z" fill="white"/>
<path d="M239.606 406.564C239.259 404.813 239.025 403.041 238.907 401.26C242.137 400.733 244.658 398.047 244.658 394.673C244.658 391.299 242.115 388.57 238.865 388.061V382.691C241.066 382.865 243.176 383.642 244.964 384.936C246.751 386.23 248.148 387.992 248.999 390.028C249.851 392.064 250.125 394.295 249.791 396.477C249.457 398.658 248.529 400.705 247.107 402.394C245.204 404.656 242.533 406.137 239.606 406.554V406.564V406.564Z" fill="#E1DAD5"/>
<path d="M291.344 377.768V400.146C291.344 404.098 289.392 418.148 283.145 418.148H250.357C244.112 418.148 242.161 404.098 242.161 400.146V377.768H291.344Z" fill="white"/>
</svg>
